<svg width="1440" height="523" viewBox="0 0 1440 523" fill="none" xmlns="http://www.w3.org/2000/svg">
<mask id="mask0_1_58" style="mask-type:luminance" maskUnits="userSpaceOnUse" x="-28" y="-168" width="1497" height="691">
<path d="M-28 522.15H1469V-168H-28V522.15Z" fill="white"/>
</mask>
<g mask="url(#mask0_1_58)">
<mask id="mask1_1_58" style="mask-type:luminance" maskUnits="userSpaceOnUse" x="-28" y="-1590" width="1497" height="2113">
<path d="M-28 522.15H1469V-1589.2H-28V522.15Z" fill="white"/>
</mask>
<g mask="url(#mask1_1_58)">
<path d="M2236.32 -34.2607C2231.76 -29.1754 2214.18 6.20349 2171.78 22.7482C2128.01 39.8195 2071.28 6.20349 2031.63 -32.4176C2045.51 5.44873 2030.15 67.726 1998.44 91.7056C1966.74 115.595 1934.37 129.868 1895.18 134C1863.47 137.37 1817.73 138.025 1789.81 122.255C1783.67 118.807 1777.68 114.84 1772.56 110.101C1772.23 150.289 1751.25 197.275 1732.91 229.62C1704.31 280.25 1660.35 305.669 1605.68 322.487C1568.66 333.791 1490.15 347.943 1451.7 343.635C1391.07 336.905 1322.96 296.188 1277.45 254.45C1232.04 212.792 1230.57 133.579 1237.81 71.4772C1226.74 135.841 1210.15 202.957 1127.17 202.037C1049.73 201.185 1037.31 139.878 1027.56 93.3104C980.373 153.933 887.858 168.597 822.426 129.7C798.958 115.733 779.535 95.8104 765.066 72.4377C739.158 30.7799 716.024 -17.8814 726.112 -66.4374C689.028 -54.1931 661.613 -64.3511 630.414 -84.8703C623.94 -89.103 617.964 -93.93 612.42 -99.2686C598.709 -112.719 587.61 -129.966 585.426 -149.284L585.171 -152.122C585.093 -153.858 585.005 -155.57 585.005 -157.383C565.993 -155.493 547.753 -158.509 532.778 -170.578C523.608 -178.003 516.537 -189.031 516.371 -201.019C516.125 -227.153 545.393 -241.729 570.203 -247.253C630.592 -260.701 694.171 -258.811 753.725 -241.739C758.093 -240.435 762.717 -238.888 766.919 -236.822C884.167 -286.414 1233.38 -271.055 1332.2 -228.369C1443.31 -275.719 1712.87 -265.541 1795.79 -216.634C1823.04 -230.523 1855.5 -237.85 1885.61 -241.993C1990.83 -256.391 2104.13 -254.237 2194.79 -197.669C2215.99 -184.389 2236.6 -166.962 2244.93 -142.907C2254.92 -113.943 2256.58 -56.9363 2236.32 -34.2607Z" fill="#F3EDED"/>
</g>
</g>
<mask id="mask2_1_58" style="mask-type:luminance" maskUnits="userSpaceOnUse" x="-28" y="-168" width="1497" height="691">
<path d="M-28 522.15H1469V-168H-28V522.15Z" fill="white"/>
</mask>
<g mask="url(#mask2_1_58)">
<mask id="mask3_1_58" style="mask-type:luminance" maskUnits="userSpaceOnUse" x="-28" y="-1590" width="1497" height="2113">
<path d="M-28 522.15H1469V-1589.2H-28V522.15Z" fill="white"/>
</mask>
<g mask="url(#mask3_1_58)">
<path d="M2244.92 -182.273C2236.59 -205.673 2215.98 -222.619 2194.78 -235.538C2104.12 -290.556 1990.82 -292.652 1885.6 -278.655C1855.49 -274.621 1823.03 -267.499 1795.78 -253.991C1712.85 -301.547 1443.29 -311.451 1332.19 -265.403C1233.36 -306.925 884.157 -321.843 766.909 -273.623C762.707 -275.639 758.083 -277.148 753.715 -278.402C694.161 -295.004 630.582 -296.855 570.196 -283.768C545.383 -278.402 516.105 -264.227 516.361 -238.811C516.527 -227.153 523.59 -216.418 532.768 -209.209C547.743 -197.464 565.983 -194.535 584.995 -196.368C584.995 -194.605 585.083 -192.93 585.16 -191.245L585.416 -188.482C587.6 -169.695 598.699 -152.917 612.412 -139.831C617.954 -134.63 623.93 -129.938 630.404 -125.833C661.603 -105.871 701.977 -99.8277 739.071 -111.739C728.973 -64.5166 739.151 -13.3477 765.059 27.1665C779.525 49.8899 798.948 69.2756 822.419 82.8515C887.848 120.68 980.373 106.417 1027.55 47.45C1037.3 92.7437 1080.2 128.729 1126.62 130.572C1173.05 132.423 1218.64 99.9529 1238.74 47.3723C1231.5 107.759 1260.18 169.244 1305.6 209.755C1351.1 250.345 1411.49 271.483 1472.12 278.028C1510.56 282.218 1549.93 280.711 1586.93 269.721C1641.61 253.364 1689.54 215.701 1718.14 166.47C1736.47 135.008 1746.74 99.0326 1747.07 59.9501C1752.2 64.5639 1757.84 68.6763 1763.98 72.0264C1791.9 87.375 1825.79 86.4548 1857.5 83.1824C1896.7 79.1578 1937.15 71.5274 1968.86 48.2925C2000.57 24.9724 2020.92 -17.8914 2007.04 -54.7021C2052.71 -44.045 2100.99 -44.8098 2146.33 -56.7984C2168.87 -62.7538 2191.07 -71.9013 2209.41 -85.9961C2214.71 -90.0232 2219.66 -94.4591 2224.22 -99.4165C2244.49 -121.465 2254.92 -154.093 2244.92 -182.273Z" fill="#FEFFFE"/>
</g>
</g>
<mask id="mask4_1_58" style="mask-type:luminance" maskUnits="userSpaceOnUse" x="-28" y="-168" width="1497" height="691">
<path d="M-28 522.15H1469V-168H-28V522.15Z" fill="white"/>
</mask>
<g mask="url(#mask4_1_58)">
<mask id="mask5_1_58" style="mask-type:luminance" maskUnits="userSpaceOnUse" x="-28" y="-1590" width="1497" height="2113">
<path d="M-28 522.15H1469V-1589.2H-28V522.15Z" fill="white"/>
</mask>
<g mask="url(#mask5_1_58)">
<path d="M-795.317 -34.2607C-790.77 -29.1754 -773.19 6.20349 -730.778 22.7482C-687.011 39.8195 -630.281 6.20349 -590.629 -32.4176C-604.508 5.44873 -589.149 67.726 -557.444 91.7056C-525.736 115.595 -493.374 129.868 -454.184 134C-422.476 137.37 -376.733 138.025 -348.809 122.255C-342.666 118.807 -336.683 114.84 -331.56 110.101C-331.227 150.289 -310.246 197.275 -291.908 229.62C-263.307 280.25 -219.348 305.669 -164.681 322.487C-127.665 333.791 -49.1487 347.943 -10.7031 343.635C49.9291 336.905 118.044 296.188 163.553 254.45C208.962 212.792 210.432 133.579 203.192 71.4772C214.261 135.841 230.853 202.957 313.827 202.037C391.268 201.185 403.688 139.878 413.444 93.3104C460.626 153.933 553.142 168.597 618.573 129.7C642.041 115.733 661.465 95.8104 675.933 72.4377C701.841 30.7799 724.976 -17.8814 714.888 -66.4374C751.972 -54.1931 779.387 -64.3511 810.586 -84.8703C817.06 -89.103 823.036 -93.93 828.58 -99.2686C842.291 -112.719 853.389 -129.966 855.573 -149.284L855.829 -152.122C855.907 -153.858 855.995 -155.57 855.995 -157.383C875.007 -155.493 893.247 -158.509 908.222 -170.578C917.392 -178.003 924.463 -189.031 924.628 -201.019C924.874 -227.153 895.606 -241.729 870.797 -247.253C810.407 -260.701 746.829 -258.811 687.275 -241.739C682.907 -240.435 678.283 -238.888 674.07 -236.822C556.833 -286.414 207.621 -271.055 108.799 -228.369C-2.30792 -275.719 -271.868 -265.541 -354.792 -216.634C-382.042 -230.523 -414.504 -237.85 -444.622 -241.993C-549.831 -256.391 -663.132 -254.237 -753.794 -197.669C-774.991 -184.389 -795.6 -166.962 -803.928 -142.907C-813.918 -113.943 -815.583 -56.9363 -795.317 -34.2607Z" fill="#F3EDED"/>
</g>
</g>
<mask id="mask6_1_58" style="mask-type:luminance" maskUnits="userSpaceOnUse" x="-28" y="-168" width="1497" height="691">
<path d="M-28 522.15H1469V-168H-28V522.15Z" fill="white"/>
</mask>
<g mask="url(#mask6_1_58)">
<mask id="mask7_1_58" style="mask-type:luminance" maskUnits="userSpaceOnUse" x="-28" y="-1590" width="1497" height="2113">
<path d="M-28 522.15H1469V-1589.2H-28V522.15Z" fill="white"/>
</mask>
<g mask="url(#mask7_1_58)">
<path d="M-803.918 -182.273C-795.59 -205.673 -774.983 -222.619 -753.784 -235.538C-663.122 -290.556 -549.824 -292.652 -444.615 -278.655C-414.494 -274.621 -382.034 -267.499 -354.782 -253.991C-271.848 -301.547 -2.28784 -311.451 108.809 -265.403C207.641 -306.925 556.843 -321.843 674.08 -273.623C678.293 -275.639 682.917 -277.148 687.285 -278.402C746.839 -295.004 810.418 -296.855 870.804 -283.768C895.616 -278.402 924.894 -264.227 924.638 -238.811C924.473 -227.153 917.409 -216.418 908.232 -209.209C893.257 -197.464 875.017 -194.535 856.005 -196.368C856.005 -194.605 855.917 -192.93 855.839 -191.245L855.583 -188.482C853.399 -169.695 842.301 -152.917 828.587 -139.831C823.046 -134.63 817.07 -129.938 810.596 -125.833C779.397 -105.871 739.023 -99.8277 701.929 -111.739C712.027 -64.5166 701.849 -13.3477 675.941 27.1665C661.475 49.8899 642.052 69.2756 618.581 82.8515C553.152 120.68 460.626 106.417 413.454 47.45C403.698 92.7437 360.796 128.729 314.377 130.572C267.947 132.423 222.362 99.9529 202.262 47.3723C209.501 107.759 180.82 169.244 135.401 209.755C89.9043 250.345 29.5078 271.483 -31.1245 278.028C-69.5701 282.218 -108.926 280.711 -145.932 269.721C-200.609 253.364 -248.536 215.701 -277.137 166.47C-295.474 135.008 -305.74 99.0326 -306.074 59.9501C-311.196 64.5639 -316.838 68.6763 -322.979 72.0264C-350.903 87.375 -384.805 86.4548 -416.513 83.1824C-455.701 79.1578 -496.155 71.5274 -527.863 48.2925C-559.568 24.9724 -579.932 -17.8914 -566.043 -54.7021C-611.707 -44.045 -659.997 -44.8098 -705.329 -56.7984C-727.866 -62.7538 -750.073 -71.9013 -768.408 -85.9961C-773.709 -90.0232 -778.674 -94.4591 -783.22 -99.4165C-803.486 -121.465 -813.918 -154.093 -803.918 -182.273Z" fill="#FEFFFE"/>
</g>
</g>
<mask id="mask8_1_58" style="mask-type:luminance" maskUnits="userSpaceOnUse" x="-28" y="-168" width="1497" height="691">
<path d="M-28 522.15H1469V-168H-28V522.15Z" fill="white"/>
</mask>
<g mask="url(#mask8_1_58)">
<mask id="mask9_1_58" style="mask-type:luminance" maskUnits="userSpaceOnUse" x="-28" y="-1590" width="1497" height="2113">
<path d="M-28 522.15H1469V-1589.2H-28V522.15Z" fill="white"/>
</mask>
<g mask="url(#mask9_1_58)">
<path d="M781.739 43.601C781.739 9.87714 754.321 -17.4701 720.5 -17.4701C686.678 -17.4701 659.261 9.87714 659.261 43.601C659.261 77.3349 686.678 104.675 720.5 104.675C754.321 104.675 781.739 77.3349 781.739 43.601Z" fill="#F3EDED"/>
</g>
</g>
<mask id="mask10_1_58" style="mask-type:luminance" maskUnits="userSpaceOnUse" x="-28" y="-168" width="1497" height="691">
<path d="M-28 522.15H1469V-168H-28V522.15Z" fill="white"/>
</mask>
<g mask="url(#mask10_1_58)">
<mask id="mask11_1_58" style="mask-type:luminance" maskUnits="userSpaceOnUse" x="-28" y="-1590" width="1497" height="2113">
<path d="M-28 522.15H1469V-1589.2H-28V522.15Z" fill="white"/>
</mask>
<g mask="url(#mask11_1_58)">
<path d="M842.978 -44.2506C842.978 -111.708 788.146 -166.395 720.5 -166.395C652.854 -166.395 598.011 -111.708 598.011 -44.2506C598.011 23.2072 652.854 77.8941 720.5 77.8941C788.146 77.8941 842.978 23.2072 842.978 -44.2506Z" fill="white"/>
</g>
</g>
</svg>
